<svg xmlns="http://www.w3.org/2000/svg" version="1.1" xmlns:xlink="http://www.w3.org/1999/xlink" xmlns:svgjs="http://svgjs.dev/svgjs" width="2000" height="1500" viewBox="0 0 2000 1500"><rect width="2000" height="1500" fill="#8d021f"></rect><g transform="matrix(0.75,0,0,0.75,249.090909090909,282.7536437246963)"><svg viewBox="0 0 396 247" data-background-color="#8d021f" preserveAspectRatio="xMidYMid meet" height="1247" width="2000" xmlns="http://www.w3.org/2000/svg" xmlns:xlink="http://www.w3.org/1999/xlink"><g id="tight-bounds" transform="matrix(1,0,0,1,0.2400000000000091,-0.09999999999999432)"><svg viewBox="0 0 395.52 247.2" height="247.2" width="395.52"><g><svg></svg></g><g><svg viewBox="0 0 395.52 247.2" height="247.2" width="395.52"><g transform="matrix(1,0,0,1,120.41639497907948,47.215199999999996)"><svg viewBox="0 0 154.687210041841 152.7696" height="152.7696" width="154.687210041841"><g><svg viewBox="0 0 154.687210041841 152.7696" height="152.7696" width="154.687210041841"><g><svg viewBox="0 0 154.687210041841 152.7696" height="152.7696" width="154.687210041841"><g><svg viewBox="0 0 154.687210041841 152.7696" height="152.7696" width="154.687210041841"><g id="textblocktransform"><svg viewBox="0 0 154.687210041841 152.7696" height="152.7696" width="154.687210041841" id="textblock"><g><svg viewBox="0 0 154.687210041841 152.7696" height="152.7696" width="154.687210041841"><g transform="matrix(1,0,0,1,0,0)"><svg width="154.687210041841" viewBox="1.65 -35.85 36.300000000000004 35.85" height="152.7696" data-palette-color="#ffffff"><path d="M10.15 0L5.25 0 5.25-35.85 10.15-35.85 10.15-19.85 29.45-19.85 29.45-35.85 34.35-35.85 34.35 0 29.45 0 29.45-16.3 10.15-16.3 10.15 0ZM6.75 0L1.65 0 1.65-2.05Q1.65-2.5 1.85-2.78 2.05-3.05 2.45-3.1L2.45-3.1 6.2-3.9 6.75 0ZM13.75 0L8.65 0 9.2-3.9 12.95-3.1Q13.35-3.05 13.55-2.78 13.75-2.5 13.75-2.05L13.75-2.05 13.75 0ZM1.65-35.85L6.75-35.85 6.2-31.95 2.45-32.75Q2.05-32.85 1.85-33.1 1.65-33.35 1.65-33.8L1.65-33.8 1.65-35.85ZM8.65-35.85L13.75-35.85 13.75-33.8Q13.75-33.35 13.55-33.1 13.35-32.85 12.95-32.75L12.95-32.75 9.2-31.95 8.65-35.85ZM30.9 0L25.8 0 25.8-2.05Q25.8-2.5 26-2.78 26.2-3.05 26.6-3.1L26.6-3.1 30.35-3.9 30.9 0ZM37.95 0L32.85 0 33.4-3.9 37.15-3.1Q37.55-3.05 37.75-2.78 37.95-2.5 37.95-2.05L37.95-2.05 37.95 0ZM25.8-35.85L30.9-35.85 30.35-31.95 26.6-32.75Q26.2-32.85 26-33.1 25.8-33.35 25.8-33.8L25.8-33.8 25.8-35.85ZM32.85-35.85L37.95-35.85 37.95-33.8Q37.95-33.35 37.75-33.1 37.55-32.85 37.15-32.75L37.15-32.75 33.4-31.95 32.85-35.85Z" opacity="1" transform="matrix(1,0,0,1,0,0)" fill="#ffffff" class="wordmark-text-0" data-fill-palette-color="primary" id="text-0"></path></svg></g></svg></g></svg></g></svg></g></svg></g></svg></g></svg></g><g><path d="M0 123.6c0-68.262 55.338-123.6 123.6-123.6 30.402 0 58.24 10.976 79.768 29.183l-11.147 0c-19.26-14.022-42.974-22.294-68.621-22.295-64.458 0-116.712 52.254-116.712 116.712 0 64.458 52.254 116.712 116.712 116.712 25.647 0 49.361-8.272 68.621-22.295l11.147 0c-21.528 18.206-49.366 29.183-79.768 29.183-68.262 0-123.6-55.338-123.6-123.6z" fill="#ffffff" stroke="transparent" data-fill-palette-color="tertiary"></path></g></svg></g><defs></defs></svg><rect width="395.52" height="247.2" fill="none" stroke="none" visibility="hidden"></rect></g></svg></g></svg>